HIERARCHY
ROOT newVegas:Hips
{
	OFFSET 0.000000 96.479958 0.000000
	CHANNELS 6 Xposition Yposition Zposition Xrotation Yrotation Zrotation
	JOINT newVegas:Pelvis
	{
		OFFSET 0.000000 0.000000 0.000000
		CHANNELS 3 Xrotation Yrotation Zrotation
		JOINT newVegas:LeftUpLeg
		{
			OFFSET 18.735201 -5.666702 -4.541200
			CHANNELS 3 Xrotation Yrotation Zrotation
			JOINT newVegas:LeftLeg
			{
				OFFSET -0.021200 -31.938179 0.493100
				CHANNELS 3 Xrotation Yrotation Zrotation
				JOINT newVegas:LeftFoot
				{
					OFFSET 0.021200 -31.938179 -4.336299
					CHANNELS 3 Xrotation Yrotation Zrotation
					JOINT newVegas:LeftToeBase
					{
						OFFSET 0.943001 -26.722000 15.023500
						CHANNELS 3 Xrotation Yrotation Zrotation
						End Site
						{
							OFFSET 0.000000 30.670183 0.000000
						}
					}
				}
				JOINT newVegas:Left_PantLeg
				{
					OFFSET 0.663870 -9.044666 -1.108900
					CHANNELS 3 Xrotation Yrotation Zrotation
					End Site
					{
						OFFSET 1.415995 20.635357 0.000000
					}
				}
			}
		}
		JOINT newVegas:RightUpLeg
		{
			OFFSET -18.735201 -5.666702 -4.541200
			CHANNELS 3 Xrotation Yrotation Zrotation
			JOINT newVegas:RightLeg
			{
				OFFSET 0.018946 -31.938133 0.493100
				CHANNELS 3 Xrotation Yrotation Zrotation
				JOINT newVegas:RightFoot
				{
					OFFSET -0.018946 -31.938126 -4.336299
					CHANNELS 3 Xrotation Yrotation Zrotation
					JOINT newVegas:RightToeBase
					{
						OFFSET -0.943001 -26.722004 15.023500
						CHANNELS 3 Xrotation Yrotation Zrotation
						End Site
						{
							OFFSET 0.000000 30.670187 0.000000
						}
					}
				}
				JOINT newVegas:Right_PantLeg
				{
					OFFSET -0.661674 -9.044716 -1.108900
					CHANNELS 3 Xrotation Yrotation Zrotation
					End Site
					{
						OFFSET -1.415958 20.635269 0.000000
					}
				}
			}
		}
	}
	JOINT newVegas:Spine
	{
		OFFSET 0.000000 10.199997 -0.299500
		CHANNELS 3 Xrotation Yrotation Zrotation
		JOINT newVegas:Spine1
		{
			OFFSET 0.000000 11.900002 -1.516600
			CHANNELS 3 Xrotation Yrotation Zrotation
			JOINT newVegas:Spine2
			{
				OFFSET 0.000000 13.600006 -2.842500
				CHANNELS 3 Xrotation Yrotation Zrotation
				JOINT newVegas:Neck
				{
					OFFSET 0.000000 9.624100 -2.890100
					CHANNELS 3 Xrotation Yrotation Zrotation
					JOINT newVegas:Head
					{
						OFFSET 0.000000 14.068802 -1.351900
						CHANNELS 3 Xrotation Yrotation Zrotation
						JOINT newVegas:Hair_Back
						{
							OFFSET 0.000000 3.231903 -17.524799
							CHANNELS 3 Xrotation Yrotation Zrotation
							End Site
							{
								OFFSET 0.000000 19.849884 0.000000
							}
						}
						JOINT newVegas:Hair_Front
						{
							OFFSET 0.000000 31.260406 4.573800
							CHANNELS 3 Xrotation Yrotation Zrotation
							JOINT newVegas:Hair_Front1
							{
								OFFSET 0.000000 2.284103 11.993300
								CHANNELS 3 Xrotation Yrotation Zrotation
								JOINT newVegas:Hair_Front2
								{
									OFFSET 0.000000 2.284103 11.993300
									CHANNELS 3 Xrotation Yrotation Zrotation
									End Site
									{
										OFFSET 0.000000 12.208862 0.000000
									}
								}
							}
						}
						JOINT newVegas:Jowel
						{
							OFFSET 0.000000 -7.458206 6.864100
							CHANNELS 3 Xrotation Yrotation Zrotation
							End Site
							{
								OFFSET 0.000000 19.849884 0.000000
							}
						}
					}
				}
				JOINT newVegas:LeftShoulder
				{
					OFFSET 15.263000 10.923401 -0.547700
					CHANNELS 3 Xrotation Yrotation Zrotation
					JOINT newVegas:LeftArm
					{
						OFFSET 25.438599 -2.830597 -13.032500
						CHANNELS 3 Xrotation Yrotation Zrotation
						JOINT newVegas:LeftForeArm
						{
							OFFSET 29.960503 0.000000 0.000000
							CHANNELS 3 Xrotation Yrotation Zrotation
							JOINT newVegas:LeftHand
							{
								OFFSET 27.849251 0.000000 0.000000
								CHANNELS 3 Xrotation Yrotation Zrotation
								JOINT newVegas:LeftHandThumb1
								{
									OFFSET 4.487587 -3.305161 6.305391
									CHANNELS 3 Xrotation Yrotation Zrotation
									JOINT newVegas:LeftHandThumb2
									{
										OFFSET 5.480453 -3.164139 3.164143
										CHANNELS 3 Xrotation Yrotation Zrotation
										JOINT newVegas:LeftHandThumb3
										{
											OFFSET 5.159721 -2.978973 2.978967
											CHANNELS 3 Xrotation Yrotation Zrotation
											End Site
											{
												OFFSET 2.494507 5.926697 1.738678
											}
										}
									}
								}
								JOINT newVegas:LeftHandIndex1
								{
									OFFSET 18.578728 -0.527832 5.208049
									CHANNELS 3 Xrotation Yrotation Zrotation
									JOINT newVegas:LeftHandIndex2
									{
										OFFSET 3.192009 0.000000 0.000000
										CHANNELS 3 Xrotation Yrotation Zrotation
										JOINT newVegas:LeftHandIndex3
										{
											OFFSET 3.835129 0.000000 0.000000
											CHANNELS 3 Xrotation Yrotation Zrotation
											End Site
											{
												OFFSET -0.034599 3.816971 0.371180
											}
										}
									}
								}
								JOINT newVegas:LeftHandMiddle1
								{
									OFFSET 18.476105 0.000000 0.000000
									CHANNELS 3 Xrotation Yrotation Zrotation
									JOINT newVegas:LeftHandMiddle2
									{
										OFFSET 3.324875 0.000000 0.000000
										CHANNELS 3 Xrotation Yrotation Zrotation
										JOINT newVegas:LeftHandMiddle3
										{
											OFFSET 4.596550 0.000000 0.000000
											CHANNELS 3 Xrotation Yrotation Zrotation
											End Site
											{
												OFFSET 0.057701 4.578827 0.399218
											}
										}
									}
								}
								JOINT newVegas:LeftHandRing1
								{
									OFFSET 17.732719 0.121887 -4.201567
									CHANNELS 3 Xrotation Yrotation Zrotation
									JOINT newVegas:LeftHandRing2
									{
										OFFSET 2.733170 0.000000 0.000000
										CHANNELS 3 Xrotation Yrotation Zrotation
										JOINT newVegas:LeftHandRing3
										{
											OFFSET 3.178268 0.000000 0.000000
											CHANNELS 3 Xrotation Yrotation Zrotation
											End Site
											{
												OFFSET 0.119102 3.170624 0.185394
											}
										}
									}
								}
								JOINT newVegas:LeftHandPinky1
								{
									OFFSET 15.989624 -0.606689 -7.535461
									CHANNELS 3 Xrotation Yrotation Zrotation
									JOINT newVegas:LeftHandPinky2
									{
										OFFSET 2.538986 0.000000 0.000000
										CHANNELS 3 Xrotation Yrotation Zrotation
										JOINT newVegas:LeftHandPinky3
										{
											OFFSET 2.593102 0.000000 0.000000
											CHANNELS 3 Xrotation Yrotation Zrotation
											End Site
											{
												OFFSET -0.150902 2.584198 0.152708
											}
										}
									}
								}
							}
							JOINT newVegas:Left_Sleeve
							{
								OFFSET 0.267448 -0.649796 0.577675
								CHANNELS 3 Xrotation Yrotation Zrotation
								End Site
								{
									OFFSET 0.000000 15.991241 0.000000
								}
							}
							JOINT newVegas:Left_CapeC
							{
								OFFSET 15.715958 -8.608795 -6.935905
								CHANNELS 3 Xrotation Yrotation Zrotation
								JOINT newVegas:Left_CapeC1
								{
									OFFSET 0.000000 -8.688499 0.000000
									CHANNELS 3 Xrotation Yrotation Zrotation
									End Site
									{
										OFFSET 0.000000 8.688499 0.000000
									}
								}
							}
						}
						JOINT newVegas:Left_CapeB
						{
							OFFSET 26.118385 -8.608795 -7.079235
							CHANNELS 3 Xrotation Yrotation Zrotation
							JOINT newVegas:Left_CapeB1
							{
								OFFSET 0.000000 -8.688499 0.000000
								CHANNELS 3 Xrotation Yrotation Zrotation
								End Site
								{
									OFFSET 0.000000 8.688499 0.000000
								}
							}
						}
						JOINT newVegas:Left_CapeA
						{
							OFFSET 5.115639 -8.608795 -10.395809
							CHANNELS 3 Xrotation Yrotation Zrotation
							JOINT newVegas:Left_CapeA1
							{
								OFFSET 0.000000 -8.688499 0.000000
								CHANNELS 3 Xrotation Yrotation Zrotation
								End Site
								{
									OFFSET 0.000000 8.688499 0.000000
								}
							}
						}
					}
				}
				JOINT newVegas:RightShoulder
				{
					OFFSET -15.263000 10.923401 -0.547700
					CHANNELS 3 Xrotation Yrotation Zrotation
					JOINT newVegas:RightArm
					{
						OFFSET -25.438599 -2.830597 -13.032500
						CHANNELS 3 Xrotation Yrotation Zrotation
						JOINT newVegas:RightForeArm
						{
							OFFSET -29.960503 0.000000 0.000000
							CHANNELS 3 Xrotation Yrotation Zrotation
							JOINT newVegas:RightHand
							{
								OFFSET -27.849251 0.000000 0.000000
								CHANNELS 3 Xrotation Yrotation Zrotation
								JOINT newVegas:RightHandThumb1
								{
									OFFSET -4.487587 -3.305161 6.305391
									CHANNELS 3 Xrotation Yrotation Zrotation
									JOINT newVegas:RightHandThumb2
									{
										OFFSET -5.480453 -3.164139 3.164143
										CHANNELS 3 Xrotation Yrotation Zrotation
										JOINT newVegas:RightHandThumb3
										{
											OFFSET -5.159721 -2.978973 2.978967
											CHANNELS 3 Xrotation Yrotation Zrotation
											End Site
											{
												OFFSET -2.494507 5.926697 1.738678
											}
										}
									}
								}
								JOINT newVegas:RightHandIndex1
								{
									OFFSET -18.578728 -0.527832 5.208049
									CHANNELS 3 Xrotation Yrotation Zrotation
									JOINT newVegas:RightHandIndex2
									{
										OFFSET -3.192009 0.000000 0.000000
										CHANNELS 3 Xrotation Yrotation Zrotation
										JOINT newVegas:RightHandIndex3
										{
											OFFSET -3.835129 0.000000 0.000000
											CHANNELS 3 Xrotation Yrotation Zrotation
											End Site
											{
												OFFSET 0.034599 3.816971 0.371180
											}
										}
									}
								}
								JOINT newVegas:RightHandMiddle1
								{
									OFFSET -18.476105 0.000000 0.000000
									CHANNELS 3 Xrotation Yrotation Zrotation
									JOINT newVegas:RightHandMiddle2
									{
										OFFSET -3.324875 0.000000 0.000000
										CHANNELS 3 Xrotation Yrotation Zrotation
										JOINT newVegas:RightHandMiddle3
										{
											OFFSET -4.596550 0.000000 0.000000
											CHANNELS 3 Xrotation Yrotation Zrotation
											End Site
											{
												OFFSET -0.057701 4.578827 0.399218
											}
										}
									}
								}
								JOINT newVegas:RightHandRing1
								{
									OFFSET -17.732719 0.121887 -4.201567
									CHANNELS 3 Xrotation Yrotation Zrotation
									JOINT newVegas:RightHandRing2
									{
										OFFSET -2.733170 0.000000 0.000000
										CHANNELS 3 Xrotation Yrotation Zrotation
										JOINT newVegas:RightHandRing3
										{
											OFFSET -3.178268 0.000000 0.000000
											CHANNELS 3 Xrotation Yrotation Zrotation
											End Site
											{
												OFFSET -0.119102 3.170624 0.185394
											}
										}
									}
								}
								JOINT newVegas:RightHandPinky1
								{
									OFFSET -15.989624 -0.606689 -7.535461
									CHANNELS 3 Xrotation Yrotation Zrotation
									JOINT newVegas:RightHandPinky2
									{
										OFFSET -2.538986 0.000000 0.000000
										CHANNELS 3 Xrotation Yrotation Zrotation
										JOINT newVegas:RightHandPinky3
										{
											OFFSET -2.593102 0.000000 0.000000
											CHANNELS 3 Xrotation Yrotation Zrotation
											End Site
											{
												OFFSET 0.150902 2.584198 0.152708
											}
										}
									}
								}
							}
							JOINT newVegas:Right_CapeC
							{
								OFFSET -15.715958 -8.608795 -6.935905
								CHANNELS 3 Xrotation Yrotation Zrotation
								JOINT newVegas:Right_CapeC1
								{
									OFFSET 0.000000 -8.688499 0.000000
									CHANNELS 3 Xrotation Yrotation Zrotation
									End Site
									{
										OFFSET 0.000000 8.688499 0.000000
									}
								}
							}
							JOINT newVegas:Right_Sleeve
							{
								OFFSET -0.267448 -0.649994 0.577675
								CHANNELS 3 Xrotation Yrotation Zrotation
								End Site
								{
									OFFSET 0.000000 15.991302 0.000000
								}
							}
						}
						JOINT newVegas:Right_CapeA
						{
							OFFSET -5.115540 -8.608795 -10.395824
							CHANNELS 3 Xrotation Yrotation Zrotation
							JOINT newVegas:Right_CapeA1
							{
								OFFSET 0.000000 -8.688499 0.000000
								CHANNELS 3 Xrotation Yrotation Zrotation
								End Site
								{
									OFFSET 0.000000 8.688499 0.000000
								}
							}
						}
						JOINT newVegas:Right_CapeB
						{
							OFFSET -26.118187 -8.608795 -7.079266
							CHANNELS 3 Xrotation Yrotation Zrotation
							JOINT newVegas:Right_CapeB1
							{
								OFFSET 0.000000 -8.688499 0.000000
								CHANNELS 3 Xrotation Yrotation Zrotation
								End Site
								{
									OFFSET 0.000000 8.688499 0.000000
								}
							}
						}
					}
				}
				JOINT newVegas:Left_Collar
				{
					OFFSET 18.625099 8.655502 8.828100
					CHANNELS 3 Xrotation Yrotation Zrotation
					JOINT newVegas:Left_Collar1
					{
						OFFSET 14.783401 10.540405 -1.259500
						CHANNELS 3 Xrotation Yrotation Zrotation
						End Site
						{
							OFFSET 0.000000 18.199875 0.000000
						}
					}
				}
				JOINT newVegas:Collar_Back
				{
					OFFSET 0.000000 15.630707 -20.132601
					CHANNELS 3 Xrotation Yrotation Zrotation
					End Site
					{
						OFFSET 0.000000 22.523010 0.000000
					}
				}
				JOINT newVegas:Left_Peck
				{
					OFFSET 17.239599 -5.132599 25.482599
					CHANNELS 3 Xrotation Yrotation Zrotation
					End Site
					{
						OFFSET 0.000000 22.523010 0.000000
					}
				}
				JOINT newVegas:Right_Peck
				{
					OFFSET -17.239599 -5.132202 25.482599
					CHANNELS 3 Xrotation Yrotation Zrotation
					End Site
					{
						OFFSET 0.000000 22.523010 0.000000
					}
				}
				JOINT newVegas:Right_Collar
				{
					OFFSET -18.625099 8.655792 8.828100
					CHANNELS 3 Xrotation Yrotation Zrotation
					JOINT newVegas:Right_Collar1
					{
						OFFSET -14.783401 10.539993 -1.259500
						CHANNELS 3 Xrotation Yrotation Zrotation
						End Site
						{
							OFFSET 0.000000 18.199631 0.000000
						}
					}
				}
			}
		}
		JOINT newVegas:Belly
		{
			OFFSET 0.000000 -6.540398 9.014299
			CHANNELS 3 Xrotation Yrotation Zrotation
			End Site
			{
				OFFSET 0.000000 11.566666 0.000000
			}
		}
	}
	JOINT newVegas:ElvisFacialAnim_Joint
	{
		OFFSET 1.000000 -95.330101 -8.825800
		CHANNELS 3 Xrotation Yrotation Zrotation
		End Site
		{
			OFFSET 0.000000 35.315800 0.000000
		}
	}
}
MOTION
Frames: 4
Frame Time: 0.033333
0.420817 111.918030 2.971115 -89.650761 0.337163 0.802530 -0.000000 0.000000 0.000000 -11.719555 14.652467 23.034200 13.264629 6.354450 0.135339 29.015911 29.298660 -33.792545 0.000000 0.000002 -0.000001 0.000001 -0.000000 -0.000001 -14.199267 -13.650129 -17.298625 15.215889 -6.797269 -7.432310 38.740997 -29.043085 33.821382 0.000001 -0.000000 0.000000 0.000000 0.000002 -0.000000 1.064134 -1.163111 0.863986 -0.316689 -2.431205 0.217438 -0.303419 -2.418349 0.331942 -3.650203 0.012721 -0.656614 -3.650183 0.012719 -0.656615 -0.000000 -0.000000 -0.000000 -3.650214 0.012713 -0.656612 -3.650212 0.012721 -0.656615 0.000000 -0.000000 0.000000 -0.000000 -0.000000 0.000000 0.421774 -0.103491 -4.000139 35.290857 -28.364340 -54.548732 0.000141 -80.783154 0.000144 -13.934608 -2.822344 -10.010297 6.584425 -4.957167 16.118985 7.178854 21.567337 2.147297 0.000003 -0.000001 0.000001 0.659529 4.932360 -26.024465 0.169786 1.401610 -13.813542 -0.000002 -0.000000 0.000000 1.376928 6.461949 -24.994174 0.169884 1.401950 -13.817115 -0.000000 0.000003 0.000001 2.098726 8.644283 -21.209682 0.169794 1.401597 -13.813537 -0.000001 -0.000002 -0.000002 2.109898 10.739414 -14.815280 0.167501 1.392245 -13.719353 0.000000 -0.000000 0.000002 -0.000000 0.000003 -0.000000 -0.000000 0.000003 -0.000000 -0.000001 0.000003 0.000001 0.000000 -0.000002 -0.000003 0.000000 -0.000003 -0.000003 0.000000 -0.000002 -0.000003 -0.000001 -0.000003 -0.000005 0.650526 1.781655 13.880721 39.457211 30.915004 33.645543 0.007603 101.538262 -0.007541 -34.977686 -9.524922 11.038284 -13.112861 7.812092 -0.095663 7.918249 -27.751668 -3.100783 0.000000 -0.000004 -0.000001 2.016103 12.845622 37.346484 0.497050 -2.095304 26.687151 -0.000000 -0.000000 0.000001 -4.321319 1.650219 38.533489 0.529966 -2.159506 27.573972 -0.000004 -0.000000 0.000001 -1.394398 -1.262387 31.742006 0.254841 -1.520925 19.022217 -0.000001 -0.000001 -0.000000 0.189709 -3.422254 14.147213 0.162345 -1.220158 15.156635 0.000000 0.000005 -0.000000 -0.000001 0.000001 0.000000 -0.000003 0.000001 0.000004 -0.000001 0.000001 0.000001 -0.000000 0.000002 0.000001 -0.000000 0.000003 0.000001 -0.000000 0.000002 0.000001 -0.000000 0.000003 0.000001 -0.000000 -0.000000 -0.000000 -0.000000 -0.000000 -0.000000 -0.000000 -0.000000 -0.000000 -0.000000 -0.000000 -0.000000 -0.000000 -0.000000 -0.000000 -0.000000 -0.000000 -0.000000 -0.000000 -0.000000 -0.000000 0.000000 -0.000000 0.000000 -0.000000 0.000000 0.000000 
0.411548 111.930046 3.100647 -89.738406 0.446104 0.219557 0.000000 -0.000000 -0.000000 -12.911756 13.535240 23.390015 17.469184 7.249212 -0.618874 26.002880 29.392790 -33.307213 -0.000001 0.000001 -0.000001 0.000001 0.000000 0.000000 -13.475106 -13.778587 -16.759070 14.528526 -6.834702 -7.368770 36.200850 -26.799717 32.592898 -0.000000 -0.000002 0.000000 -0.000000 -0.000001 -0.000002 1.100666 -1.166637 0.880133 -0.309122 -2.427251 0.217437 -0.282224 -2.373554 0.367683 -3.536580 0.151479 -0.942617 -3.536597 0.151480 -0.942616 0.000000 -0.000000 0.000000 -3.536544 0.151479 -0.942617 -3.536597 0.151482 -0.942617 0.000000 -0.000000 -0.000000 0.000000 -0.000000 0.000000 0.917414 -0.403967 -3.604658 34.809414 -29.008138 -54.499968 -0.000062 -80.459225 -0.000077 -14.442655 -3.212384 -9.522222 6.592388 -4.894675 16.141270 7.178853 21.567337 2.147299 0.000001 0.000001 -0.000003 0.659515 4.932372 -26.024450 0.169788 1.401609 -13.813544 -0.000000 -0.000000 0.000001 1.376915 6.461938 -24.994193 0.169878 1.401955 -13.817112 -0.000000 -0.000000 -0.000000 2.098722 8.644286 -21.209679 0.169795 1.401602 -13.813532 0.000001 -0.000002 -0.000001 2.109892 10.739409 -14.815271 0.167499 1.392245 -13.719350 0.000001 -0.000003 -0.000002 0.000001 0.000000 0.000002 0.000001 0.000000 0.000002 -0.000000 0.000000 0.000002 0.000001 0.000001 0.000001 0.000001 0.000000 0.000001 0.000001 0.000001 0.000001 0.000000 0.000002 -0.000000 0.563284 2.928608 13.811675 39.475102 30.098642 34.104528 0.003270 101.851535 -0.003233 -35.088731 -9.243840 10.556486 -13.112859 7.812093 -0.095661 7.918251 -27.751668 -3.100785 0.000000 -0.000003 0.000001 2.016097 12.845621 37.346487 0.497049 -2.095303 26.687151 -0.000002 0.000000 -0.000001 -4.321317 1.650221 38.533492 0.529966 -2.159506 27.573971 -0.000000 -0.000000 0.000003 -1.394391 -1.262386 31.742013 0.254842 -1.520923 19.022217 -0.000000 -0.000001 -0.000001 0.189704 -3.422256 14.147218 0.162341 -1.220160 15.156637 0.000002 0.000002 -0.000001 0.000001 0.000002 -0.000001 -0.000001 0.000002 0.000001 0.000001 0.000002 -0.000000 0.000002 -0.000001 -0.000001 0.000003 0.000000 -0.000001 0.000002 -0.000001 -0.000001 0.000002 -0.000000 -0.000001 -0.000000 0.000000 0.000000 -0.000000 0.000000 0.000000 -0.000000 0.000000 0.000000 -0.000000 0.000000 0.000000 -0.000000 0.000000 0.000000 -0.000000 0.000000 0.000000 -0.000000 0.000000 0.000000 -0.000000 0.000000 0.000000 0.000000 -0.000000 -0.000000 
0.376924 112.000130 3.141151 -90.378122 1.114872 -0.454038 0.000000 -0.000000 -0.000000 -13.682778 13.257068 24.672450 20.875906 6.692529 -2.825279 22.644056 29.586566 -31.421090 -0.000000 0.000001 -0.000000 -0.000000 -0.000002 0.000000 -11.601383 -13.889766 -15.932470 13.772329 -5.567308 -7.188914 34.081845 -25.954413 32.503777 -0.000000 0.000002 -0.000001 -0.000001 0.000001 0.000000 1.122532 -1.180703 1.019617 -0.293281 -2.409874 0.217438 -0.264074 -2.274567 0.390716 -3.374304 0.295468 -1.242369 -3.374292 0.295469 -1.242370 -0.000000 0.000000 0.000000 -3.374227 0.295472 -1.242372 -3.374345 0.295465 -1.242368 -0.000000 0.000000 0.000000 -0.000000 0.000000 -0.000000 1.086296 -3.079271 -3.101403 34.884160 -28.229076 -55.411645 -0.000066 -80.421700 -0.000082 -15.245414 -4.189694 -8.305123 6.610127 -4.720223 16.200493 7.178853 21.567342 2.147306 0.000004 0.000000 0.000001 0.659517 4.932367 -26.024460 0.169786 1.401607 -13.813547 -0.000000 0.000000 0.000000 1.376939 6.461949 -24.994177 0.169879 1.401949 -13.817113 0.000000 -0.000000 -0.000001 2.098731 8.644281 -21.209681 0.169789 1.401604 -13.813533 0.000000 0.000001 0.000000 2.109906 10.739414 -14.815266 0.167500 1.392247 -13.719351 -0.000002 -0.000002 -0.000002 -0.000003 0.000001 -0.000002 -0.000003 0.000001 -0.000002 -0.000004 0.000001 -0.000001 -0.000002 0.000001 0.000001 -0.000002 0.000000 0.000001 -0.000002 0.000001 0.000001 -0.000003 0.000002 -0.000000 0.218349 4.905068 13.622790 39.227914 28.441230 35.921205 0.001213 102.356423 -0.001181 -34.715652 -9.049172 10.240774 -13.112864 7.812092 -0.095661 7.918246 -27.751665 -3.100779 0.000001 0.000000 -0.000002 2.016098 12.845616 37.346484 0.497049 -2.095304 26.687149 0.000002 0.000000 -0.000001 -4.321321 1.650218 38.533486 0.529965 -2.159507 27.573967 -0.000002 0.000002 0.000003 -1.394394 -1.262383 31.742024 0.254831 -1.520923 19.022207 -0.000003 -0.000001 -0.000000 0.189704 -3.422257 14.147208 0.162333 -1.220161 15.156635 0.000000 -0.000002 -0.000001 -0.000000 0.000000 0.000002 0.000001 0.000001 0.000006 -0.000000 -0.000000 0.000000 0.000000 0.000001 -0.000001 0.000000 0.000002 -0.000001 0.000000 0.000001 -0.000001 0.000000 0.000002 -0.000001 0.000000 0.000000 0.000000 0.000000 0.000000 0.000000 0.000000 0.000000 0.000000 0.000000 0.000000 0.000000 0.000000 0.000000 0.000000 0.000000 0.000000 0.000000 0.000000 0.000000 0.000000 0.000000 0.000000 -0.000000 0.000000 -0.000000 -0.000000 
0.316198 112.134956 3.247955 -91.457982 2.333767 -1.079174 0.000000 0.000000 -0.000000 -14.232902 13.986875 27.374813 23.555798 4.453715 -6.766431 19.954478 29.675936 -29.405457 0.000000 -0.000000 -0.000000 0.000000 -0.000000 0.000000 -9.381003 -13.814524 -15.578251 13.124787 -5.861360 -6.706453 30.804044 -21.453868 30.199036 0.000001 0.000000 0.000001 -0.000000 -0.000002 -0.000001 1.231099 -1.196278 1.311271 -0.245698 -2.374760 0.201391 -0.231916 -2.136230 0.392712 -3.026891 0.441212 -1.550522 -3.026877 0.441211 -1.550523 -0.000000 0.000000 0.000001 -3.026901 0.441210 -1.550522 -3.026891 0.441212 -1.550522 -0.000001 -0.000000 0.000000 -0.000000 0.000000 0.000000 1.182435 -6.879483 -2.549797 35.424998 -27.206298 -56.259227 0.000387 -80.452170 0.000381 -16.569173 -5.739716 -6.407727 6.631664 -4.453189 16.287491 7.178847 21.567338 2.147300 0.000002 0.000000 -0.000003 0.659516 4.932363 -26.024465 0.169783 1.401610 -13.813544 0.000000 -0.000001 -0.000001 1.376927 6.461945 -24.994181 0.169881 1.401952 -13.817115 -0.000003 -0.000000 -0.000001 2.098731 8.644299 -21.209674 0.169794 1.401604 -13.813535 0.000001 -0.000001 0.000000 2.109904 10.739407 -14.815280 0.167498 1.392243 -13.719353 0.000000 -0.000005 -0.000002 -0.000003 -0.000001 0.000001 -0.000003 -0.000001 0.000001 -0.000003 -0.000001 0.000002 0.000000 0.000003 -0.000000 -0.000000 0.000002 0.000000 0.000000 0.000003 -0.000000 -0.000001 0.000002 -0.000001 -0.089308 7.317678 13.375115 39.107986 26.610437 37.709280 0.001080 102.932590 -0.001073 -34.575442 -8.563425 9.608337 -13.112857 7.812089 -0.095655 7.918249 -27.751668 -3.100781 0.000003 0.000001 -0.000000 2.016097 12.845621 37.346484 0.497048 -2.095302 26.687151 0.000001 0.000000 0.000000 -4.321316 1.650219 38.533496 0.529971 -2.159506 27.573971 0.000001 -0.000003 0.000002 -1.394398 -1.262383 31.742020 0.254841 -1.520930 19.022219 0.000001 -0.000001 -0.000001 0.189712 -3.422247 14.147234 0.162339 -1.220165 15.156635 0.000004 0.000002 -0.000000 0.000001 0.000001 -0.000000 0.000000 -0.000000 -0.000000 0.000001 0.000001 -0.000000 0.000002 0.000000 -0.000000 0.000002 0.000001 -0.000000 0.000002 0.000000 -0.000000 0.000002 0.000001 -0.000000 0.000000 0.000000 -0.000000 0.000000 0.000000 -0.000000 0.000000 0.000000 -0.000000 0.000000 0.000000 -0.000000 0.000000 0.000000 -0.000000 0.000000 0.000000 -0.000000 0.000000 0.000000 -0.000000 -0.000000 0.000000 -0.000000 0.000000 0.000000 -0.000000 
